<svg xmlns="http://www.w3.org/2000/svg" width="90.514" height="111.766" viewBox="0 0 90.514 111.766">
  <g id="Group_4920" data-name="Group 4920" transform="translate(-35 -30)">
    <path id="Path_5" data-name="Path 5" d="M11.806,3.148a8.658,8.658,0,0,0-8.658,8.658V99.959a8.658,8.658,0,0,0,8.658,8.658h66.9a8.658,8.658,0,0,0,8.658-8.658V11.806a8.658,8.658,0,0,0-8.658-8.658h-66.9m0-3.148h66.9A11.806,11.806,0,0,1,90.514,11.806V99.959a11.806,11.806,0,0,1-11.806,11.806h-66.9A11.806,11.806,0,0,1,0,99.959V11.806A11.806,11.806,0,0,1,11.806,0Z" transform="translate(35 30)" fill="#fff"/>
    <path id="Path_1" data-name="Path 1" d="M-10767.141-426.634l1.049-9.789h-5.513l-3.661-1.183h-4.5l-3.542-1.073-4.007,1.073-4.646,1.183-2.3-1.183s-5.42,2-1.815-1.073,9.845-4.732,9.845-4.732-7.871,1.869-8.029,0,4.085-3.668,4.085-3.668-3.564,1.2-1.782-.994,8.652-6.263,8.652-6.263-10.207,4.062-8.652,2.1,5.727-3.9,5.727-3.9l-1.081-1.151V-459.2s-6.437-2.168-2.863-1.829a20.431,20.431,0,0,0,5.277,0s-2.216-2.374,0-3.455,3.1,1.009,4.22-2-.567-3.124,3.155-2.982,1.648,1.034,5.04-1.159,2.721.726,5.34,0,.071-2.895,3.021-2.382,1.846,2.856,4.259.836,1.625,1.254,5.293,1.546,1.807,1.152,5.237,2.942,10.136.922,10.869,4.385,0,4.1,0,4.1,1.672-.244,2.232,1-4.338.473-2.232,2.066,3.983,2.84,3.983,2.84-4.338,1.294-1.751,2.114,7.28-.449,5.262,1.373-3.511,1.735-3.511,1.735,5.238-.782,3.511,1.814-3.511,2.848-3.511,2.848v1.475h-2.587v-2.911s.039,2.982-4.126,1.436.75,3.274,4.126,3.25,8.9,1.7,6.1,2.556a12.915,12.915,0,0,1-6.1,0s5.758,1.665,2.587,2.855-4.876-3.857-7.549-2.855-10.727,4.062-12.541,2.855a26.184,26.184,0,0,1-3.463-2.855v8.858Z" transform="translate(10844.013 511.677)" fill="#fff"/>
    <path id="Path_6" data-name="Path 6" d="M2.767-4.384H6.1L8.519-20.362H6.214L4.571-7.968H4.525L2.882-20.362H.348Zm5.661,0h2.328l.457-3.127h2.853v-.046l.457,3.173h2.511l-2.6-15.978h-3.4Zm3.081-5.3,1.1-7.9h.046l1.118,7.9Zm6.733,5.3h6.642V-6.667H20.754v-13.7H18.243Zm11.321.228c2.465,0,3.743-1.461,3.743-4.017V-13.4H29.679v2.283h1.255V-7.99c0,1.141-.5,1.552-1.3,1.552s-1.3-.411-1.3-1.552v-8.742c0-1.141.5-1.575,1.3-1.575s1.3.434,1.3,1.575V-15.2h2.374v-1.37c0-2.556-1.278-4.017-3.743-4.017s-3.743,1.461-3.743,4.017v8.4C25.821-5.617,27.1-4.156,29.564-4.156Zm4.7-.228h2.328l.457-3.127H39.9v-.046l.457,3.173h2.511l-2.6-15.978h-3.4Zm3.081-5.3,1.1-7.9h.046l1.118,7.9Zm10.386,5.3h2.511v-6.505h1.187c2.511,0,3.743-1.392,3.743-3.949v-1.575c0-2.556-1.233-3.949-3.743-3.949h-3.7Zm2.511-8.788v-4.907h1.187c.8,0,1.233.365,1.233,1.506v1.895c0,1.141-.434,1.506-1.233,1.506ZM60.2-4.156c2.465,0,3.743-1.461,3.743-4.017V-20.362H61.52V-7.99c0,1.141-.479,1.552-1.278,1.552s-1.278-.411-1.278-1.552V-20.362H56.453V-8.173C56.453-5.617,57.731-4.156,60.2-4.156Zm9.176,0c2.465,0,3.743-1.461,3.743-4.017V-20.362H70.7V-7.99c0,1.141-.479,1.552-1.278,1.552s-1.278-.411-1.278-1.552V-20.362H65.629V-8.173C65.629-5.617,66.907-4.156,69.372-4.156Z" transform="translate(43.584 137.492)" fill="#fff"/>
    <path id="Path_2" data-name="Path 2" d="M-10808.838-401.092s14.482-6.193,42.1-12.992,41.988-8,41.988-8v30.462s-.355-.431-4.43,0-11.869,1.724-11.869,1.724a56.85,56.85,0,0,1,7.633-2.6,59.871,59.871,0,0,1,7.537-1.5,28.841,28.841,0,0,0-6.535,0c-4.293.375-10.635,1.5-10.635,1.5s5.332-2.043,9.076-3.079a26.053,26.053,0,0,1,5.9-1.066s-3.7-.475-16.7,1.616-35.287,6.745-35.287,6.745,16.2-4.858,29.512-7.873,23.729-4.186,23.729-4.186a134.612,134.612,0,0,0-20.963,1.764c-13.131,1.961-31.555,6.08-31.555,6.08s15.063-4.829,27.879-7.844a224.8,224.8,0,0,1,23.383-4.215s-4.016-.082-18,1.807-30.7,6.106-30.7,6.106,4.58-1.762,14.916-4.449,17.082-4.291,17.082-4.291-13.637,1.6-30.061,5.042-35.635,8.721-35.635,8.721a169.163,169.163,0,0,1,24.785-9.472c12.545-3.507,21.545-5.742,21.545-5.742a214.038,214.038,0,0,0-22.121,4.084c-11.582,2.814-24.209,7.173-24.209,7.173a103.633,103.633,0,0,1,22.8-8.979c13.807-3.75,20.926-5.624,20.926-5.624s-8.988,1.074-19.514,3.346S-10808.838-401.092-10808.838-401.092Z" transform="translate(10847.86 500.817)" fill="#fff"/>
  </g>
</svg>
